Coordinates

Units are S.I. units (second, meters, Newtons, ...)
If the header above contains a line with 'inDegrees', this indicates whether rotational values are in degrees (yes) or radians (no).

inDegrees=no
nColumns=21
nRows=30
DataType=double
version=3
OpenSimVersion=4.6-2026-03-31-d6972f9e6
endheader
time	/jointset/ground_pelvis/pelvis_tilt/value	/jointset/ground_pelvis/pelvis_list/value	/jointset/ground_pelvis/pelvis_rotation/value	/jointset/ground_pelvis/pelvis_tx/value	/jointset/ground_pelvis/pelvis_ty/value	/jointset/ground_pelvis/pelvis_tz/value	/jointset/hip_r/hip_flexion_r/value	/jointset/hip_r/hip_adduction_r/value	/jointset/hip_r/hip_rotation_r/value	/jointset/walker_knee_r/knee_angle_r/value	/jointset/patellofemoral_r/knee_angle_r_beta/value	/jointset/ankle_r/ankle_angle_r/value	/jointset/subtalar_r/subtalar_angle_r/value	/jointset/hip_l/hip_flexion_l/value	/jointset/hip_l/hip_adduction_l/value	/jointset/hip_l/hip_rotation_l/value	/jointset/walker_knee_l/knee_angle_l/value	/jointset/patellofemoral_l/knee_angle_l_beta/value	/jointset/ankle_l/ankle_angle_l/value	/jointset/subtalar_l/subtalar_angle_l/value
147.496	-0.07280258030457346	-0.05139474992710404	1.524746110359101	0.8637152210992394	0.9616074888382853	-1.20774562578941	0.5209607968148274	-0.108579553924355	0.1043191600413351	1.382233724032315	1.382233724561428	0.006892071864285022	-0.09053215832005417	-0.01309227178166977	0.129037468644359	0.01914261359266565	0.4882985857558456	0.4882985851675402	0.2366600451497643	-0.2188236844737637
147.5	-0.06673679099977503	-0.05249343641679291	1.518425026695035	0.8642047882502222	0.9641564913703917	-1.208563245384348	0.5255748906205963	-0.09608146338746691	0.1032467365751071	1.346856628106619	1.346856628706707	0.006595941772127073	-0.1007192044189943	-0.03184721735576528	0.1242957137424492	0.02186172269530633	0.4687147681818298	0.4687147675576947	0.2069941132770397	-0.228958406040586
147.504	-0.06049441881319485	-0.05371314349260089	1.512025916121505	0.8647254050553406	0.966722225473914	-1.209450336927983	0.5292549479605982	-0.08336264660406635	0.1022789845257228	1.309745563732281	1.309745564400087	0.005845498546378934	-0.1111968203569365	-0.05036382494739385	0.1192738894668379	0.02383269706431553	0.449123537102509	0.4491235364645587	0.1762067651928411	-0.2383440841942082
147.508	-0.05406585903242517	-0.05505787042159839	1.505640279358649	0.865270255423091	0.9692921625590342	-1.210404406682257	0.531996740712207	-0.07046694928090015	0.1013873097404051	1.270946773707524	1.270946774437252	0.004749847780520428	-0.121746214990939	-0.06859588539964577	0.1139487646983787	0.02503631275650326	0.4296201694275081	0.4296201687979618	0.1445607002154737	-0.2467620050364356
147.512	-0.04745949124825243	-0.05653625480668286	1.499353052679165	0.8658325519111809	0.9718531866017158	-1.211422235256198	0.533813505007052	-0.05745516482074513	0.1005486854935042	1.230521132692387	1.230521133475178	0.003427105815803867	-0.1321353311268715	-0.08648606139190783	0.1083178320976595	0.02546651854562009	0.4103070403098278	0.4103070397090409	0.1123171711687142	-0.2540276008491733
147.516	-0.04070225348514011	-0.05816122820616509	1.493239343764568	0.8664058262453586	0.9743916417339566	-1.212499858629389	0.534736615555541	-0.04440358562974019	0.09974772078781211	1.188546527485384	1.188546528309102	0.002001432520279317	-0.1421234057843769	-0.1039658713949951	0.1023998020685521	0.02513011458506609	0.3912944176974574	0.3912944171423238	0.07973067595925391	-0.2599949831172106
147.52	-0.03383909037663425	-0.05994896830996698	1.487362031118373	0.8669841554704737	0.9768934544600852	-1.213632570453905	0.5348149459658404	-0.03140180921457467	0.09897766269237156	1.145119873337533	1.14511987418675	0.0005996015525837631	-0.1514663598708231	-0.1209567566457129	0.09623396661174866	0.02404673816333791	0.3727009854602895	0.3727009849633931	0.04704373548131695	-0.2645606107556377
147.524	-0.02693140706388315	-0.06191736928461849	1.48177028969365	0.8675623165183359	0.9793443104620833	-1.214814944830713	0.5341131767659353	-0.01854999337766656	0.09824040023373966	1.100358713092388	1.100358713948449	-0.000652696884066027	-0.1599228051455553	-0.1373719793884299	0.08987856155995656	0.02224912828913322	0.3546540620546321	0.3546540616241999	0.01448198975850694	-0.2676658519728833
147.528	-0.02005472096471345	-0.06408433620162245	1.476499039618207	0.8681358696485092	0.9817298559618625	-1.216040876946642	0.5327094366200317	-0.005955768052030896	0.09754562629828523	1.054402365799186	1.054402366640441	-0.001634583672358176	-0.1672603700885782	-0.1531189757612486	0.08340829165167246	0.01978351904481148	0.3372895387467566	0.3372895383871332	-0.01775004401741914	-0.2692980110280422
147.532	-0.01329566994326713	-0.06646607555786531	1.471569247425826	0.8687011766670479	0.9840359074749384	-1.21730363959636	0.5306925059385372	0.006269058734538295	0.09690935820927692	1.007412548770292	1.007412549572786	-0.002233589265162018	-0.1732621463320592	-0.1681019528151371	0.07691116887423528	0.01670997934782515	0.3207515108723606	0.3207515105845545	-0.04947230938166741	-0.2694896050699409
147.536	-0.006748501314479366	-0.06907547283808231	1.466988953891126	0.8692553640354772	0.9862486624882496	-1.218595953630446	0.5281587152369923	0.01801193090731032	0.0963520516687736	0.9595733724104286	0.9595733731493197	-0.002349002459403976	-0.1777330723926918	-0.182224613621094	0.07048479494574857	0.01310249833122576	0.3051915625687221	0.3051915623507108	-0.08053149149004217	-0.2683158797176545
147.54	-0.0005111886960523849	-0.07192067209673675	1.462754873724423	0.8697962435101347	0.988354900437427	-1.219910069785863	0.5252087091405502	0.02916303863415642	0.09589655766352405	0.9110906310510781	0.9110906317027725	-0.001894832741263607	-0.1805060007315733	-0.1953928529882993	0.06423223969702664	0.009048619834515877	0.2907676978222561	0.2907676976690137	-0.1108021174093518	-0.2658906156117274
147.544	0.005318621328180044	-0.07500398018150801	1.458854407698823	0.8703222029772107	0.990342161151632	-1.221237859198688	0.5219442744550072	0.03961875233602292	0.09556616021011147	0.8621903556831492	0.8621903562278033	-0.0008022628309648157	-0.1814471802093044	-0.2075172539176762	0.05825772615821207	0.004648512387642487	0.2776429132034117	0.2776429131067956	-0.1401864184360166	-0.2623603639787718
147.548	0.01064759499675525	-0.07832117302379887	1.455267912440142	0.8708320790215897	0.9921988913321924	-1.22257091005571	0.5184653933425053	0.04928483186392871	0.09538290795957748	0.8131166308262799	0.8131166312501005	0.0009784755385711045	-0.1804609353615688	-0.2185152732822451	0.05266237964777466	1.347805133656284e-05	0.2659833843835888	0.2659833843322212	-0.168612997706712	-0.2578973783606089
147.552	0.01539039507729995	-0.08186121972844609	1.45197108123743	0.8713250214379564	0.9939145548481123	-1.223900628886394	0.514867618769593	0.05807924111075331	0.0953664033830143	0.7641287067578515	0.7641287070546068	0.003476814691852582	-0.1774933880345012	-0.2283130812272638	0.04754029960086269	-0.004736034884560914	0.25595622679618	0.2559562267754043	-0.1960344266439966	-0.2526915985010282
147.556	0.01947288101716662	-0.08560637626100284	1.448937301357533	0.8718003584380443	0.9954797084579958	-1.225218347584428	0.5112397906642754	0.06593443595419911	0.09553313028932253	0.7154974566443673	0.715497456815823	0.006701133389672044	-0.172535121894269	-0.2368470988950605	0.04297515756918289	-0.009472860284153672	0.2477267916547327	0.247726791646779	-0.2224239516221729	-0.2469420863821636
147.56	0.02283478793449541	-0.08953250877649173	1.446139861927584	0.8722574712025092	0.996886055016899	-1.226515441318961	0.507661973059846	0.07279912546512626	0.09589630848102856	0.6675012140491152	0.6675012141045302	0.01063856278881582	-0.1656227240565158	-0.2440654092799646	0.03903738053723317	-0.01406597401294866	0.2414554439361573	0.2414554439208544	-0.2477715591092901	-0.2408483619612812
147.564	0.02543199577818755	-0.09360943642438393	1.44355389413717	0.8726956874693451	0.9981264953819801	-1.227783464576532	0.5042033804943935	0.07863965417564776	0.09646619456414798	0.6204210178941479	0.6204210178491283	0.01525525120151132	-0.1568391568471939	-0.2499293128542494	0.03578182579246111	-0.01838380594810106	0.2372937754706712	0.2372937754271064	-0.2720796987555703	-0.2346021202630082
147.568	0.02723842496088929	-0.09780118601697552	1.441157951421049	0.8731142026889994	0.9991951890653703	-1.229014305947669	0.5009202252224267	0.08344108312384495	0.09725072519087691	0.5745353953562514	0.5745353952311973	0.0204970568853942	-0.1463129112168491	-0.2544151121905866	0.03324589920737394	-0.0222979810626111	0.2353803514051635	0.2353803513143467	-0.2953589082192391	-0.2283797431985543
147.572	0.02824734939164094	-0.1020662714206182	1.4389351793679	0.8735120333372677	1.000087607940105	-1.230200350224931	0.4978537697294621	0.08720780522200275	0.09825641068700978	0.5301149904127185	0.5301149902311173	0.02629071061874637	-0.1342158838347615	-0.257515832365788	0.03144827027525842	-0.02568736574593575	0.2358363147406615	0.2358363145886948	-0.3176234498858232	-0.2223358649762044
147.576	0.02847184885671256	-0.1063581709611749	1.436874056052588	0.8738880037911871	1.000800559774648	-1.231334631927774	0.4950289715030462	0.08996345620690137	0.09948938225162537	0.4874174117013478	0.4874174114882613	0.03254550989632748	-0.1207599674706178	-0.2592424775752559	0.03038839295792342	-0.02844223345138161	0.2387612431681472	0.2387612429491033	-0.338887020697882	-0.2165981515199943
147.58	0.02794428936061261	-0.1106260488200738	1.434968696154049	0.8742407673184379	1.001332173358531	-1.232410968962381	0.492453906734183	0.0917500387461366	0.1009564691711426	0.4466825992092505	0.4466825989902573	0.03915555957076645	-0.1061924606501398	-0.2596246358746982	0.03004689525350721	-0.03046836965907145	0.244229545914296	0.2442295456321333	-0.3591586606557005	-0.2112634457711718
147.584	0.02671488898940514	-0.1148156785439489	1.433218723852534	0.8745688616212853	1.001681849114563	-1.23342406931388	0.4901199987589002	0.09262634073456315	0.1026661713967689	0.4081289265427402	0.408128926343291	0.0460025300791428	-0.09079050930943205	-0.2587104033982501	0.03038674734505541	-0.03169096274961093	0.2522876010090818	0.2522876006782336	-0.3784390509775965	-0.2063954192882773
147.588	0.02484952644579681	-0.118870526583762	1.43162873816672	0.8748707980041376	1.001850181822876	-1.23436960511776	0.4880030364326116	0.09266582031213076	0.1046293939978994	0.3719502011651971	0.3719502010100608	0.05295889312453569	-0.07485480336954899	-0.2565656232407855	0.03135502510016969	-0.03205814596649839	0.262951812610857	0.2629518122554313	-0.39671741575356	-0.2020238303356476
147.592	0.02242705424405512	-0.1227329184497435	1.430207414184393	0.8751451791732944	1.001838867395325	-1.235244250885894	0.4860648778240992	0.09195420625213603	0.106859793218607	0.3383136445242145	0.3383136444366878	0.05989159902225391	-0.05870262439381124	-0.253272512486482	0.03288500519117613	-0.03154405398591936	0.2762077138386125	0.2762077134903863	-0.4139692455749655	-0.198145467796539
147.596	0.0195364506066233	-0.1263451446631932	1.4289662996246	0.8753908352438062	1.001650612347741	-1.236045686034124	0.4842556123044171	0.09058709610711163	0.1093735653552187	0.3073588489580297	0.307358848958846	0.06666617260845087	-0.04266018720397151	-0.248927879104918	0.03489829551876449	-0.03015122666927303	0.2920101348385026	0.2920101345341019	-0.4301550530400812	-0.1947268490295103
147.6	0.01627408263370773	-0.1296503850382238	1.427918383776315	0.8756069639438669	1.001289060482975	-1.23677256351897	0.4825159699556379	0.08866775588092242	0.1121885336597833	0.2791976885864313	0.2791976886925546	0.07315122413940221	-0.02705423319088256	-0.2436411300345879	0.03730678701976623	-0.02791215278499133	0.3102843762017328	0.3102843759794939	-0.4452203393847492	-0.1917086744248408
147.604	0.01274120960331995	-0.1325934435220417	1.427076539379843	0.8757932598748265	1.000758737428179	-1.237424446225088	0.4807799130055437	0.08630518685319731	0.1153224568132559	0.2539151811868874	0.2539151814104233	0.07922337944570526	-0.01220299450447992	-0.2375321322791275	0.04001435048171774	-0.02488973967876717	0.3309283052515345	0.330928305148481	-0.4590968971503119	-0.1890119193742264
147.608	0.009041755705006241	-0.1351213796192551	1.426451947733341	0.8759500189995505	1.000065003224246	-1.238001712197732	0.4789774509655943	0.08361243936365748	0.1187905910116631	0.2315712817344671	0.2315712820818637	0.08477258947066393	0.001593184005643321	-0.2307288746504565	0.04291829261008626	-0.02117654758466781	0.3538152796808826	0.3538152797300224	-0.4717054948358133	-0.1865452903671792
147.612	0.005280334771527216	-0.1371841305338795	1.426052587569805	0.8760782110834917	0.9992140021283874	-1.238505429664235	0.4770377053535048	0.08070513342189113	0.122602730941258	0.212203513607686	0.2122035140792883	0.0897076419210245	0.01406107158417085	-0.2233648795309018	0.04591063435579628	-0.01689273707091251	0.3787977608982502	0.3787977611262177	-0.4829598759120413	-0.184213562943158
